# Blender v2.83.1 OBJ File: ''
# www.blender.org
mtllib Stone_Stele.mtl
o Stone
v 0.072658 0.001641 0.272717
v 0.083282 0.001641 0.330715
v 0.307872 0.001641 0.213087
v 0.251074 0.001641 0.175238
v -0.176868 0.001641 0.244725
v -0.184714 0.001641 0.343435
v 0.358092 0.001641 -0.007782
v 0.317431 0.001641 0.001058
v 0.277252 0.001642 -0.206143
v 0.225322 0.001642 -0.157923
v 0.068716 0.001642 -0.261392
v 0.073972 0.001642 -0.287861
v -0.095591 0.001642 -0.264756
v -0.119709 0.001642 -0.331502
v -0.233785 0.001642 -0.160233
v -0.255182 0.001642 -0.172362
v -0.342624 0.001641 -0.004203
v -0.287136 0.001641 -0.000446
v -0.273572 0.001641 0.125005
v -0.298529 0.001641 0.138196
v -0.027440 0.058912 -0.153898
v 0.056959 0.051287 -0.003530
v -0.201817 0.053394 -0.021031
v -0.182663 0.010724 0.064111
v 0.031398 0.016984 0.206835
v -0.170805 0.028212 0.201247
v -0.121072 0.014171 -0.017580
v -0.159883 0.061217 -0.034822
v -0.088418 0.086455 -0.058914
v -0.059515 0.014171 -0.039814
v -0.128836 0.014171 0.113081
v -0.144423 0.079826 0.118658
v -0.166947 0.066836 0.053472
v -0.176893 0.014171 0.070050
v -0.057252 0.014171 0.097208
v -0.056846 0.088547 0.115694
v 0.000904 0.155006 0.164577
v -0.020263 0.014171 0.201244
v 0.173804 0.014171 0.032354
v 0.209494 0.212215 0.027231
v 0.214238 0.172936 0.115243
v 0.149732 0.014171 0.080915
v 0.152156 0.014171 -0.082788
v 0.144210 0.198339 -0.087712
v 0.076616 0.014171 -0.051963
v 0.088356 0.118127 -0.147327
v -0.005828 0.014171 -0.087648
v -0.014818 0.119034 -0.088564
v -0.134374 0.274300 -0.008639
v -0.073151 0.222010 -0.023736
v -0.072051 0.309512 0.120618
v -0.129776 0.290832 0.065061
v -0.002621 0.265399 0.137365
v 0.065202 0.285099 0.164809
v 0.169039 0.355455 0.006292
v 0.146724 0.336135 0.086555
v 0.127942 0.327576 -0.076592
v 0.074424 0.276763 -0.093730
v -0.026794 0.238304 -0.087955
v -0.030729 0.362365 0.093963
v -0.075208 0.391976 0.016901
v 0.037060 0.362439 0.054614
v -0.000880 0.427827 -0.028758
v 0.061905 0.447764 0.057291
v 0.104581 0.656665 -0.120640
v 0.109530 0.598391 -0.037564
v 0.038399 0.594171 -0.166118
v 0.019576 0.441303 -0.163788
v -0.010849 0.399504 -0.089662
v -0.035916 0.323763 -0.008121
v -0.098556 0.363661 0.005504
v -0.024904 0.431141 -0.050013
v 0.012388 0.496627 -0.063362
v -0.005536 0.523950 -0.108990
v 0.063541 0.516909 0.038417
v 0.022061 0.682205 -0.070222
v 0.067328 0.701315 -0.060232
v 0.028268 0.640292 -0.044843
v 0.094489 0.648420 -0.032465
v 0.042997 0.588804 -0.031367
v 0.081326 0.596167 -0.010867
v 0.113855 0.014171 0.121162
v 0.074862 0.135114 0.131874
v 0.104873 0.300503 0.150232
v 0.106606 0.539074 0.052095
vt 0.476894 0.751032
vt 0.522026 0.775102
vt 0.361795 0.931361
vt 0.345358 0.874032
vt 0.522035 0.533267
vt 0.605636 0.553680
vt 0.162516 0.913502
vt 0.180983 0.882004
vt 0.017642 0.791699
vt 0.071688 0.762058
vt 0.026522 0.601047
vt 0.003992 0.598730
vt 0.070133 0.462395
vt 0.020561 0.424156
vt 0.194910 0.374267
vt 0.191055 0.353314
vt 0.356314 0.325709
vt 0.344698 0.372135
vt 0.446704 0.419373
vt 0.464499 0.401890
vt 0.149655 0.553232
vt 0.248992 0.661734
vt 0.303294 0.445421
vt 0.373806 0.480293
vt 0.432953 0.698100
vt 0.481196 0.528152
vt 0.995272 0.575000
vt 0.983696 0.629069
vt 0.917489 0.600516
vt 0.952264 0.537707
vt 0.973454 0.158067
vt 0.915958 0.158748
vt 0.915330 0.094925
vt 0.964566 0.098552
vt 0.984378 0.224753
vt 0.915731 0.241936
vt 0.857994 0.316769
vt 0.994367 0.319563
vt 0.014074 0.186219
vt 0.175888 0.184842
vt 0.142299 0.242354
vt 0.009605 0.242667
vt 0.024944 0.083650
vt 0.174909 0.082025
vt 0.015812 0.035165
vt 0.122309 0.012397
vt 0.905742 0.501192
vt 0.845716 0.571421
vt 0.771515 0.499097
vt 0.874424 0.439811
vt 0.850716 0.768208
vt 0.833933 0.695712
vt 0.717025 0.233572
vt 0.719571 0.163517
vt 0.749276 0.299272
vt 0.732189 0.364732
vt 0.295286 0.182014
vt 0.276492 0.254918
vt 0.284932 0.101726
vt 0.254563 0.048840
vt 0.774014 0.656006
vt 0.689505 0.618148
vt 0.662718 0.252413
vt 0.610624 0.187652
vt 0.623915 0.304538
vt 0.541934 0.240210
vt 0.555616 0.342335
vt 0.548786 0.111103
vt 0.501500 0.173194
vt 0.525180 0.038513
vt 0.400801 0.005710
vt 0.663201 0.754197
vt 0.589822 0.741510
vt 0.760322 0.756111
vt 0.773754 0.816905
vt 0.670702 0.798325
vt 0.619087 0.841638
vt 0.574042 0.826354
vt 0.489149 0.344944
vt 0.485041 0.829455
vt 0.616118 0.106927
vt 0.596261 0.149489
vt 0.529004 0.939220
vt 0.487351 0.948523
vt 0.543052 0.175416
vt 0.552906 0.994615
vt 0.493654 0.994241
vt 0.576453 0.926376
vt 0.593737 0.962164
vt 0.960936 0.456120
vt 0.864542 0.394504
vt 0.711435 0.398989
vt 0.473576 0.384479
vt 0.403854 0.305337
vt 0.470364 0.241543
vt 0.403791 0.342486
vt 0.533442 0.213846
vt 0.625622 0.156992
vt 0.705688 0.098673
vt 0.893119 0.017121
vt 0.946770 0.007283
vt 0.509492 0.204470
vt 0.448928 0.241649
vt 0.249940 0.316196
vt 0.107093 0.343381
vt 0.007424 0.290148
vn 0.0000 1.0000 0.0000
vn 0.2149 0.9608 -0.1752
vn -0.1306 0.9113 -0.3905
vn 0.1875 0.9822 -0.0145
vn -0.0063 0.9774 0.2115
vn -0.3495 0.9016 -0.2549
vn -0.2225 0.9482 0.2267
vn 0.0931 0.9809 0.1710
vn -0.0035 0.9334 0.3588
vn -0.0598 0.9972 0.0459
vn -0.2896 0.9554 0.0573
vn -0.2323 -0.4016 -0.8859
vn -0.8381 0.0108 0.5454
vn 0.1245 -0.1549 0.9801
vn -0.8670 0.1276 0.4817
vn 0.9600 -0.2742 0.0570
vn 0.9342 -0.0770 -0.3483
vn 0.3795 -0.3086 -0.8722
vn -0.1143 -0.4147 -0.9027
vn -0.4722 -0.1981 -0.8590
vn -0.2409 0.1955 -0.9507
vn -0.8400 0.1876 0.5091
vn -0.0938 -0.0286 0.9952
vn -0.5960 0.1742 0.7839
vn 0.9087 0.3556 0.2187
vn 0.8549 0.1602 -0.4935
vn 0.3481 0.2402 -0.9062
vn -0.3229 0.1521 -0.9341
vn -0.6408 0.1149 -0.7591
vn -0.5963 0.6194 0.5106
vn 0.2859 0.4593 0.8410
vn 0.0677 0.8734 0.4823
vn -0.7100 0.4782 0.5169
vn 0.9354 0.2703 0.2279
vn 0.7769 -0.0290 -0.6289
vn 0.5355 -0.1295 -0.8345
vn -0.3912 -0.2423 -0.8879
vn -0.9238 0.2040 -0.3239
vn -0.0884 0.1861 -0.9785
vn -0.6801 -0.2049 -0.7039
vn -0.9740 0.2241 0.0329
vn -0.8132 0.1968 0.5477
vn -0.8838 0.0405 -0.4661
vn -0.1893 0.7156 -0.6724
vn -0.9652 0.2074 -0.1595
vn 0.9047 0.4020 0.1411
vn -0.2726 0.3957 0.8770
vn -0.8582 0.0288 0.5125
vn -0.3263 0.2983 0.8970
vn 0.4819 0.1189 0.8681
vn 0.3722 -0.1761 0.9113
vn -0.3443 0.4272 0.8360
vn -0.8038 0.2798 0.5250
vn -0.4637 0.4192 0.7806
vn -0.8118 0.3797 0.4437
vn -0.5199 0.8477 0.1053
vn -0.8971 0.4371 0.0642
vn -0.9888 0.1448 -0.0349
vn -0.8826 -0.3586 -0.3040
vn 0.5521 0.5475 0.6289
vn 0.8802 0.2432 0.4076
vn 0.3794 0.0723 0.9224
vn 0.3385 -0.1796 0.9237
usemtl Default_OBJ
s off
f 1/1/1 2/2/1 3/3/1 4/4/1
f 1/1/1 5/5/1 6/6/1 2/2/1
f 4/4/1 3/3/1 7/7/1 8/8/1
f 8/8/1 7/7/1 9/9/1 10/10/1
f 11/11/1 10/10/1 9/9/1 12/12/1
f 13/13/1 11/11/1 12/12/1 14/14/1
f 15/15/1 13/13/1 14/14/1 16/16/1
f 15/15/1 16/16/1 17/17/1 18/18/1
f 19/19/1 18/18/1 17/17/1 20/20/1
f 19/19/1 20/20/1 6/6/1 5/5/1
f 10/10/2 11/11/2 21/21/2 22/22/2
f 21/21/3 11/11/3 13/13/3 15/15/3
f 8/8/4 10/10/4 22/22/4 4/4/4
f 22/22/5 21/21/5 23/23/5 24/24/5
f 23/23/6 21/21/6 15/15/6 18/18/6
f 23/23/7 18/18/7 19/19/7 24/24/7
f 25/25/8 1/1/8 4/4/8 22/22/8
f 5/5/9 1/1/9 25/25/9 26/26/9
f 26/26/10 25/25/10 22/22/10 24/24/10
f 26/26/11 24/24/11 19/19/11 5/5/11
f 27/27/12 28/28/12 29/29/12 30/30/12
f 31/31/13 32/32/13 33/33/13 34/34/13
f 35/35/14 36/36/14 32/32/14 31/31/14
f 37/37/15 36/36/15 35/35/15 38/38/15
f 39/39/16 40/40/16 41/41/16 42/42/16
f 43/43/17 44/44/17 40/40/17 39/39/17
f 45/45/18 46/46/18 44/44/18 43/43/18
f 47/47/19 48/48/19 46/49/19 45/50/19
f 30/30/20 29/29/20 48/48/20 47/47/20
f 28/28/21 49/51/21 50/52/21 29/29/21
f 32/32/22 51/53/22 52/54/22 33/33/22
f 36/36/23 53/55/23 51/53/23 32/32/23
f 53/55/24 36/36/24 37/37/24 54/56/24
f 40/40/25 55/57/25 56/58/25 41/41/25
f 44/44/26 57/59/26 55/57/26 40/40/26
f 46/46/27 58/60/27 57/59/27 44/44/27
f 48/48/28 59/61/28 58/62/28 46/49/28
f 29/29/29 50/52/29 59/61/29 48/48/29
f 51/53/30 60/63/30 61/64/30 52/54/30
f 53/55/31 62/65/31 60/63/31 51/53/31
f 63/66/32 61/64/32 60/63/32 62/65/32
f 62/65/33 53/55/33 54/56/33 64/67/33
f 55/57/34 65/68/34 66/69/34 56/58/34
f 57/59/35 67/70/35 65/68/35 55/57/35
f 58/60/36 68/71/36 67/70/36 57/59/36
f 59/61/37 69/72/37 68/73/37 58/62/37
f 50/52/38 70/74/38 69/72/38 59/61/38
f 49/51/39 71/75/39 70/74/39 50/52/39
f 70/74/40 71/75/40 72/76/40 69/72/40
f 72/76/41 73/77/41 74/78/41 69/72/41
f 64/67/42 75/79/42 63/66/42 62/65/42
f 74/78/43 67/80/43 68/73/43 69/72/43
f 67/70/44 76/81/44 77/82/44 65/68/44
f 74/78/45 78/83/45 76/84/45 67/80/45
f 65/68/46 77/82/46 79/85/46 66/69/46
f 76/84/47 78/83/47 79/86/47 77/87/47
f 73/77/48 80/88/48 78/83/48 74/78/48
f 78/83/49 80/88/49 81/89/49 79/86/49
f 38/38/50 82/90/50 83/91/50 37/37/50
f 83/91/51 84/92/51 54/56/51 37/37/51
f 84/92/52 85/93/52 64/67/52 54/56/52
f 80/94/53 73/95/53 75/79/53 81/96/53
f 75/79/54 64/67/54 85/93/54 81/96/54
f 73/95/55 72/97/55 63/66/55 75/79/55
f 72/97/56 71/98/56 61/64/56 63/66/56
f 71/98/57 49/99/57 52/54/57 61/64/57
f 49/99/58 28/100/58 33/33/58 52/54/58
f 28/100/59 27/101/59 34/34/59 33/33/59
f 81/102/60 85/103/60 66/69/60 79/85/60
f 85/103/61 84/104/61 56/58/61 66/69/61
f 84/104/62 83/105/62 41/41/62 56/58/62
f 83/105/63 82/106/63 42/42/63 41/41/63
